<svg width="25" height="15" viewBox="0 0 25 15" fill="none" xmlns="http://www.w3.org/2000/svg">
<path d="M9.84402 5.82812H9.30529L9.3454 6.36535L9.89123 13.6756C9.89107 13.6772 9.89067 13.6794 9.88976 13.6824C9.88808 13.6879 9.88387 13.6987 9.87338 13.7144C9.85143 13.7472 9.80576 13.7954 9.72308 13.8464C9.55584 13.9496 9.28884 14.0312 8.96511 14.0312C8.64138 14.0312 8.37438 13.9496 8.20714 13.8464C8.12445 13.7954 8.07879 13.7472 8.05683 13.7144C8.04635 13.6987 8.04213 13.6879 8.04046 13.6824C8.03955 13.6794 8.03915 13.6772 8.03899 13.6756L8.58482 6.36535L8.62493 5.82812H8.0862H7.96902C7.54975 5.82812 7.19953 5.71829 6.9822 5.57668C6.75584 5.42919 6.75933 5.31949 6.76325 5.29547L6.76598 5.27879L6.76757 5.26196L7.17393 0.96875H10.7465L11.0631 5.29561C11.0618 5.33607 11.0308 5.45319 10.808 5.59003C10.5859 5.72636 10.245 5.82812 9.84402 5.82812Z" fill="white" stroke="#AD2020"/>
<path d="M15.0844 1.61722C15.5975 1.30938 16.2936 1.08756 17.0859 1.02086V14.0625H17C16.5387 14.0625 16.1424 13.9482 15.8779 13.7895C15.6255 13.6381 15.5578 13.4935 15.5481 13.4116L16.129 8.76514L16.1992 8.20312H15.6328C15.1715 8.20312 14.7752 8.08885 14.5107 7.93014C14.2352 7.76484 14.1797 7.60758 14.1797 7.53125V2.84375C14.1797 2.44515 14.4549 1.99492 15.0844 1.61722Z" fill="white" stroke="#AD2020"/>
<mask id="path-3-inside-1_103_1734" fill="white">
<path d="M10.0195 3.69141V0.175781C10.0195 0.0820312 9.88281 0 9.72656 0C9.57031 0 9.43359 0.0820312 9.43359 0.175781V3.69141C9.43359 3.78516 9.57031 3.86719 9.72656 3.86719C9.88281 3.86719 10.0195 3.78516 10.0195 3.69141Z"/>
</mask>
<path d="M10.0195 3.69141V0.175781C10.0195 0.0820312 9.88281 0 9.72656 0C9.57031 0 9.43359 0.0820312 9.43359 0.175781V3.69141C9.43359 3.78516 9.57031 3.86719 9.72656 3.86719C9.88281 3.86719 10.0195 3.78516 10.0195 3.69141Z" fill="#AD2020"/>
<path d="M11.0195 3.69141V0.175781H9.01953V3.69141H11.0195ZM11.0195 0.175781C11.0195 -0.381554 10.6333 -0.692441 10.4461 -0.804759C10.2221 -0.939193 9.96769 -1 9.72656 -1V1C9.64169 1 9.53378 0.980209 9.41714 0.910227C9.33737 0.862363 9.01953 0.639366 9.01953 0.175781H11.0195ZM9.72656 -1C9.48544 -1 9.23105 -0.939193 9.00699 -0.804759C8.81979 -0.692441 8.43359 -0.381554 8.43359 0.175781H10.4336C10.4336 0.639366 10.1158 0.862363 10.036 0.910227C9.91934 0.980209 9.81144 1 9.72656 1V-1ZM8.43359 0.175781V3.69141H10.4336V0.175781H8.43359ZM8.43359 3.69141C8.43359 4.24874 8.81979 4.55963 9.00699 4.67195C9.23105 4.80638 9.48544 4.86719 9.72656 4.86719V2.86719C9.81144 2.86719 9.91934 2.88698 10.036 2.95696C10.1158 3.00482 10.4336 3.22782 10.4336 3.69141H8.43359ZM9.72656 4.86719C9.96769 4.86719 10.2221 4.80638 10.4461 4.67195C10.6333 4.55963 11.0195 4.24874 11.0195 3.69141H9.01953C9.01953 3.22782 9.33737 3.00482 9.41714 2.95696C9.53378 2.88698 9.64169 2.86719 9.72656 2.86719V4.86719Z" fill="#AD2020" mask="url(#path-3-inside-1_103_1734)"/>
<mask id="path-5-inside-2_103_1734" fill="white">
<path d="M8.60449 3.69141V0.175781C8.60449 0.0820312 8.46777 0 8.31152 0C8.15527 0 8.01855 0.0820312 8.01855 0.175781V3.69141C8.01855 3.78516 8.15527 3.86719 8.31152 3.86719C8.46777 3.86719 8.60449 3.78516 8.60449 3.69141Z"/>
</mask>
<path d="M8.60449 3.69141V0.175781C8.60449 0.0820312 8.46777 0 8.31152 0C8.15527 0 8.01855 0.0820312 8.01855 0.175781V3.69141C8.01855 3.78516 8.15527 3.86719 8.31152 3.86719C8.46777 3.86719 8.60449 3.78516 8.60449 3.69141Z" fill="#AD2020"/>
<path d="M9.60449 3.69141V0.175781H7.60449V3.69141H9.60449ZM9.60449 0.175781C9.60449 -0.381554 9.21829 -0.692441 9.0311 -0.804759C8.80704 -0.939193 8.55265 -1 8.31152 -1V1C8.22665 1 8.11874 0.980209 8.00211 0.910227C7.92233 0.862363 7.60449 0.639366 7.60449 0.175781H9.60449ZM8.31152 -1C8.0704 -1 7.81601 -0.939193 7.59195 -0.804759C7.40475 -0.692441 7.01855 -0.381554 7.01855 0.175781H9.01855C9.01855 0.639366 8.70071 0.862363 8.62094 0.910227C8.50431 0.980209 8.3964 1 8.31152 1V-1ZM7.01855 0.175781V3.69141H9.01855V0.175781H7.01855ZM7.01855 3.69141C7.01855 4.24874 7.40475 4.55963 7.59195 4.67195C7.81601 4.80638 8.0704 4.86719 8.31152 4.86719V2.86719C8.3964 2.86719 8.50431 2.88698 8.62094 2.95696C8.70071 3.00482 9.01855 3.22782 9.01855 3.69141H7.01855ZM8.31152 4.86719C8.55265 4.86719 8.80704 4.80638 9.0311 4.67195C9.21829 4.55963 9.60449 4.24874 9.60449 3.69141H7.60449C7.60449 3.22782 7.92233 3.00482 8.00211 2.95696C8.11874 2.88698 8.22665 2.86719 8.31152 2.86719V4.86719Z" fill="#AD2020" mask="url(#path-5-inside-2_103_1734)"/>
</svg>
