<svg width="13" height="12" viewBox="0 0 13 12" fill="none" xmlns="http://www.w3.org/2000/svg">
<g clip-path="url(#clip0_109_222)">
<path d="M10.9512 6.77106C10.8555 5.74221 10.345 4.78396 9.52086 4.08572C8.69667 3.38748 7.61869 3.00007 6.5 3.00007C5.38131 3.00007 4.30333 3.38748 3.47914 4.08572C2.65496 4.78396 2.14454 5.74221 2.0488 6.77106L0.867648 7.93404C0.695794 8.12895 0.604291 8.37374 0.609375 8.625V11.0625C0.609692 11.3111 0.716797 11.5493 0.907195 11.7251C1.09759 11.9008 1.35574 11.9997 1.625 12H11.375C11.6443 11.9997 11.9024 11.9008 12.0928 11.7251C12.2832 11.5493 12.3903 11.3111 12.3906 11.0625V8.625C12.3957 8.37384 12.3044 8.12912 12.1327 7.93423L10.9512 6.77106ZM6.5 3.375C7.30349 3.375 8.08893 3.59493 8.757 4.00699C9.42508 4.41904 9.94578 5.00471 10.2533 5.68994C10.5607 6.37516 10.6412 7.12916 10.4844 7.85659C10.3277 8.58402 9.94077 9.2522 9.37262 9.77665C8.80447 10.3011 8.0806 10.6583 7.29255 10.8029C6.50451 10.9476 5.68767 10.8734 4.94535 10.5895C4.20302 10.3057 3.56855 9.82507 3.12215 9.20839C2.67576 8.5917 2.4375 7.86668 2.4375 7.125C2.43871 6.13078 2.86712 5.17761 3.62872 4.47459C4.39032 3.77157 5.42293 3.37612 6.5 3.375ZM11.9844 11.0625C11.9842 11.2116 11.9199 11.3546 11.8057 11.4601C11.6915 11.5655 11.5366 11.6248 11.375 11.625H1.625C1.46344 11.6248 1.30854 11.5655 1.1943 11.4601C1.08006 11.3546 1.0158 11.2116 1.01562 11.0625V8.625C1.00948 8.46882 1.06185 8.31546 1.16391 8.19077L2.03702 7.33108C2.09473 8.3878 2.59013 9.38365 3.42079 10.1127C4.25145 10.8418 5.35386 11.2484 6.5001 11.2484C7.64634 11.2484 8.74875 10.8418 9.57941 10.1127C10.4101 9.38365 10.9055 8.3878 10.9632 7.33108L11.8365 8.19096C11.9384 8.31565 11.9906 8.46893 11.9844 8.625V11.0625ZM6.5 0C3.45591 0 0.203125 0.541875 0.203125 2.0625V2.8125C0.203125 2.86223 0.224526 2.90992 0.262619 2.94508C0.300712 2.98025 0.352378 3 0.40625 3H3.25C3.30387 3 3.35554 2.98025 3.39363 2.94508C3.43172 2.90992 3.45312 2.86223 3.45312 2.8125L3.44906 2.08073C3.55251 1.91584 4.67049 1.6875 6.5 1.6875C8.32951 1.6875 9.44749 1.91584 9.54688 2.0625V2.8125C9.54688 2.86223 9.56828 2.90992 9.60637 2.94508C9.64446 2.98025 9.69613 3 9.75 3H12.5938C12.6476 3 12.6993 2.98025 12.7374 2.94508C12.7755 2.90992 12.7969 2.86223 12.7969 2.8125V2.0625C12.7969 0.541875 9.54409 0 6.5 0ZM12.3906 2.625H9.95312V2.0625C9.95312 1.41 7.78956 1.3125 6.5 1.3125C5.21044 1.3125 3.04688 1.41 3.04688 2.0625V2.625H0.609375V2.0625C0.609375 1.05313 2.97665 0.375 6.5 0.375C10.0233 0.375 12.3906 1.05313 12.3906 2.0625V2.625ZM5.07812 9.375C5.07812 9.52418 5.14233 9.66726 5.25661 9.77275C5.37089 9.87824 5.52588 9.9375 5.6875 9.9375C5.84912 9.9375 6.00411 9.87824 6.11839 9.77275C6.23267 9.66726 6.29688 9.52418 6.29688 9.375V8.4375H9.54688C9.60075 8.4375 9.65241 8.41775 9.69051 8.38258C9.7286 8.34742 9.75 8.29973 9.75 8.25C9.75233 7.46174 9.58525 6.68089 9.25845 5.95264C8.93165 5.22439 8.4516 4.56321 7.84611 4.00736C7.80802 3.97221 7.75636 3.95246 7.70249 3.95246C7.64862 3.95246 7.59696 3.97221 7.55887 4.00736L3.10637 8.11736C3.07794 8.14358 3.05858 8.177 3.05073 8.21338C3.04288 8.24976 3.0469 8.28747 3.06227 8.32174C3.07765 8.35601 3.10369 8.38531 3.13711 8.40591C3.17053 8.42652 3.20981 8.43751 3.25 8.4375H5.07812V9.375ZM3.74036 8.0625L7.7001 4.40726C8.71213 5.39987 9.29559 6.70006 9.34038 8.0625H6.29688V7.875C6.29688 7.82527 6.27547 7.77758 6.23738 7.74242C6.19929 7.70725 6.14762 7.6875 6.09375 7.6875C6.03988 7.6875 5.98821 7.70725 5.95012 7.74242C5.91203 7.77758 5.89062 7.82527 5.89062 7.875V9.375C5.89062 9.42473 5.86922 9.47242 5.83113 9.50758C5.79304 9.54275 5.74137 9.5625 5.6875 9.5625C5.63363 9.5625 5.58196 9.54275 5.54387 9.50758C5.50578 9.47242 5.48438 9.42473 5.48438 9.375V7.875C5.48438 7.82527 5.46297 7.77758 5.42488 7.74242C5.38679 7.70725 5.33512 7.6875 5.28125 7.6875C5.22738 7.6875 5.17571 7.70725 5.13762 7.74242C5.09953 7.77758 5.07812 7.82527 5.07812 7.875V8.0625H3.74036ZM8.125 7.6875C8.24552 7.6875 8.36334 7.65451 8.46355 7.5927C8.56376 7.53089 8.64187 7.44304 8.68799 7.34026C8.73411 7.23748 8.74618 7.12438 8.72267 7.01526C8.69915 6.90615 8.64112 6.80592 8.55589 6.72725C8.47067 6.64859 8.36209 6.59501 8.24388 6.57331C8.12568 6.5516 8.00315 6.56274 7.8918 6.60532C7.78045 6.64789 7.68528 6.71999 7.61832 6.81249C7.55136 6.90499 7.51562 7.01375 7.51562 7.125C7.5158 7.27413 7.58006 7.41711 7.6943 7.52257C7.80854 7.62802 7.96344 7.68734 8.125 7.6875ZM8.125 6.9375C8.16517 6.9375 8.20445 6.9485 8.23785 6.9691C8.27125 6.9897 8.29729 7.01899 8.31266 7.05325C8.32804 7.08751 8.33206 7.12521 8.32422 7.16158C8.31638 7.19795 8.29704 7.23136 8.26863 7.25758C8.24022 7.2838 8.20403 7.30166 8.16463 7.3089C8.12523 7.31613 8.08438 7.31242 8.04727 7.29823C8.01015 7.28404 7.97843 7.26 7.95611 7.22917C7.93379 7.19833 7.92188 7.16208 7.92188 7.125C7.92192 7.07529 7.94334 7.02762 7.98142 6.99247C8.01951 6.95731 8.07114 6.93754 8.125 6.9375ZM6.90625 6.75C7.02677 6.75 7.14459 6.71701 7.2448 6.6552C7.34501 6.59339 7.42312 6.50554 7.46924 6.40276C7.51536 6.29998 7.52743 6.18688 7.50392 6.07776C7.4804 5.96865 7.42237 5.86842 7.33714 5.78975C7.25192 5.71109 7.14334 5.65751 7.02513 5.63581C6.90693 5.6141 6.7844 5.62524 6.67305 5.66782C6.5617 5.71039 6.46653 5.78249 6.39957 5.87499C6.33261 5.96749 6.29688 6.07625 6.29688 6.1875C6.29705 6.33663 6.36131 6.47961 6.47555 6.58507C6.58979 6.69052 6.74469 6.74984 6.90625 6.75ZM6.90625 6C6.94642 6 6.9857 6.011 7.0191 6.0316C7.0525 6.0522 7.07854 6.08149 7.09391 6.11575C7.10929 6.15001 7.11331 6.18771 7.10547 6.22408C7.09763 6.26045 7.07829 6.29386 7.04988 6.32008C7.02147 6.3463 6.98528 6.36416 6.94588 6.3714C6.90648 6.37863 6.86563 6.37492 6.82852 6.36073C6.7914 6.34654 6.75968 6.3225 6.73736 6.29167C6.71504 6.26083 6.70312 6.22458 6.70312 6.1875C6.70317 6.13779 6.72459 6.09012 6.76267 6.05497C6.80076 6.01981 6.85239 6.00004 6.90625 6Z" fill="#AD2020"/>
</g>
<defs>
<clipPath id="clip0_109_222">
<rect width="13" height="12" fill="white"/>
</clipPath>
</defs>
</svg>
