<svg width="14" height="14" viewBox="0 0 14 14" fill="none" xmlns="http://www.w3.org/2000/svg">
<g clip-path="url(#clip0_109_287)">
<path d="M9.91699 1.16663H4.08366C2.47283 1.16663 1.16699 2.47246 1.16699 4.08329V9.91663C1.16699 11.5275 2.47283 12.8333 4.08366 12.8333H9.91699C11.5278 12.8333 12.8337 11.5275 12.8337 9.91663V4.08329C12.8337 2.47246 11.5278 1.16663 9.91699 1.16663Z" stroke="#FFFAF1" stroke-linecap="round" stroke-linejoin="round"/>
<path d="M9.33284 6.63268C9.40483 7.11815 9.3219 7.61397 9.09586 8.0496C8.86982 8.48523 8.51217 8.8385 8.07379 9.05915C7.6354 9.2798 7.1386 9.35661 6.65405 9.27864C6.16949 9.20066 5.72186 8.97189 5.37483 8.62485C5.02779 8.27781 4.79901 7.83019 4.72104 7.34563C4.64307 6.86108 4.71988 6.36428 4.94053 5.92589C5.16118 5.48751 5.51445 5.12986 5.95008 4.90382C6.38571 4.67778 6.88153 4.59485 7.367 4.66684C7.86221 4.74028 8.32067 4.97103 8.67466 5.32502C9.02865 5.67901 9.2594 6.13747 9.33284 6.63268Z" stroke="#FFFAF1" stroke-linecap="round" stroke-linejoin="round"/>
<path d="M10.208 3.79163H10.2147" stroke="#FFFAF1" stroke-linecap="round" stroke-linejoin="round"/>
</g>
<defs>
<clipPath id="clip0_109_287">
<rect width="14" height="14" fill="white"/>
</clipPath>
</defs>
</svg>
