<svg width="32" height="31" viewBox="0 0 32 31" fill="none" xmlns="http://www.w3.org/2000/svg">
<path d="M28 12.9167C28 21.9584 16 29.7084 16 29.7084C16 29.7084 4 21.9584 4 12.9167C4 9.83354 5.26428 6.87668 7.51472 4.69657C9.76516 2.51646 12.8174 1.29169 16 1.29169C19.1826 1.29169 22.2348 2.51646 24.4853 4.69657C26.7357 6.87668 28 9.83354 28 12.9167Z" stroke="#AD2020" stroke-width="2" stroke-linecap="round" stroke-linejoin="round"/>
<path d="M16 16.7917C18.2091 16.7917 20 15.0568 20 12.9167C20 10.7766 18.2091 9.04169 16 9.04169C13.7909 9.04169 12 10.7766 12 12.9167C12 15.0568 13.7909 16.7917 16 16.7917Z" stroke="#AD2020" stroke-width="2" stroke-linecap="round" stroke-linejoin="round"/>
</svg>
