<svg width="96" height="49" viewBox="0 0 96 49" fill="none" xmlns="http://www.w3.org/2000/svg">
<g clip-path="url(#clip0_103_622)">
<path d="M79.4611 13C82.7966 13.8083 86.1174 15.3084 88.9825 17.454C91.8469 19.5987 93.8493 22.0845 94.929 24.5816L68.0693 33.1143L79.4611 13Z" fill="#FBB713"/>
<path opacity="0.25" d="M88.9825 17.4541C87.9958 16.7151 86.9522 16.0585 85.8754 15.4746C85.9306 15.5149 85.988 15.552 86.0429 15.5929C88.9075 17.7376 92.6735 21.6193 93.7534 24.1164L69.4185 30.7324L68.0693 33.1145L94.929 24.5817C93.8495 22.0846 91.847 19.5987 88.9825 17.4541Z" fill="#010101"/>
<path opacity="0.35" d="M90.6663 24.6541C90.4803 24.6541 90.3022 24.5693 90.2215 24.4263C89.2836 22.7742 87.7988 21.1604 85.9279 19.7595C84.0553 18.3578 81.8979 17.2449 79.6894 16.5413C79.4395 16.4618 79.3187 16.2371 79.4191 16.0395C79.52 15.8416 79.806 15.7466 80.0529 15.8257C82.3742 16.5651 84.6373 17.7316 86.5978 19.1991C88.5602 20.6688 90.121 22.3671 91.1103 24.1104C91.2207 24.3046 91.1107 24.5328 90.8657 24.6201C90.8005 24.6432 90.733 24.6541 90.6663 24.6541Z" fill="#142A3B"/>
<path opacity="0.35" d="M82.3706 21.2195C82.3706 22.0553 81.5144 22.7329 80.4582 22.7329C79.4021 22.7329 78.5459 22.0553 78.5459 21.2195C78.5459 20.3835 79.4021 19.7061 80.4582 19.7061C81.5144 19.7061 82.3706 20.3835 82.3706 21.2195Z" fill="#010101"/>
<path opacity="0.35" d="M78.3394 27.0784C78.3394 27.9144 77.4831 28.5919 76.427 28.5919C75.3709 28.5919 74.5146 27.9144 74.5146 27.0784C74.5146 26.2426 75.3709 25.5649 76.427 25.5649C77.4831 25.5649 78.3394 26.2426 78.3394 27.0784Z" fill="#010101"/>
<path d="M81.7827 21.6843C81.7827 22.5201 80.9266 23.1979 79.8703 23.1979C78.8141 23.1979 77.958 22.5201 77.958 21.6843C77.958 20.8485 78.8141 20.1709 79.8703 20.1709C80.9266 20.1709 81.7827 20.8485 81.7827 21.6843Z" fill="#FF3A2F"/>
<path d="M77.7513 27.0784C77.7513 27.9144 76.8952 28.5919 75.8391 28.5919C74.783 28.5919 73.9268 27.9144 73.9268 27.0784C73.9268 26.2426 74.783 25.5649 75.8391 25.5649C76.8952 25.5649 77.7513 26.2426 77.7513 27.0784Z" fill="#FF3A2F"/>
<path d="M85.0534 26.372C84.1429 26.6297 83.6406 27.3776 83.8341 28.1062L87.3207 26.9986C86.8556 26.4055 85.9175 26.1272 85.0534 26.372Z" fill="#FF3A2F"/>
<path d="M77.6631 34.4307H79.6682C80.0549 34.4307 80.3683 34.5419 80.3683 34.6793C80.3683 34.8167 80.0549 34.928 79.6682 34.928H79.5749C79.1883 34.928 78.8748 35.0396 78.8748 35.1769C78.8748 35.3143 79.1883 35.4257 79.5749 35.4257H83.8853C84.2719 35.4257 84.5854 35.537 84.5854 35.6744C84.5854 35.8119 84.2719 35.9232 83.8853 35.9232H78.7053H73.0118C72.6251 35.9232 72.3117 35.8119 72.3117 35.6744C72.3117 35.537 72.6251 35.4257 73.0118 35.4257H74.208C74.5946 35.4257 74.9081 35.3143 74.9081 35.1769C74.9081 35.0396 74.5946 34.928 74.208 34.928H68.5145C68.1279 34.928 67.8145 34.8167 67.8145 34.6793C67.8145 34.5419 68.1279 34.4307 68.5145 34.4307H69.8602H77.6631Z" fill="#FF3A2F"/>
<path d="M90.0738 36.1384C90.5153 36.1384 90.8732 36.0112 90.8732 35.8543C90.8732 35.6975 90.5153 35.5703 90.0738 35.5703H87.6245C87.183 35.5703 86.8252 35.6975 86.8252 35.8543C86.8252 36.0112 87.183 36.1384 87.6245 36.1384H90.0738Z" fill="#FF3A2F"/>
<path d="M91.9699 32.1963H92.8909C93.0682 32.1963 93.2121 32.2595 93.2121 32.3374C93.2121 32.4153 93.0682 32.4785 92.8909 32.4785H92.8479C92.6704 32.4785 92.5264 32.5417 92.5264 32.6196C92.5264 32.6977 92.6704 32.7607 92.8479 32.7607H94.8271C95.0048 32.7607 95.1487 32.8239 95.1487 32.9019C95.1487 32.9799 95.0048 33.0429 94.8271 33.0429H92.4486H87.5866C87.4091 33.0429 87.2652 32.9799 87.2652 32.9019C87.2652 32.8239 87.4091 32.7607 87.5866 32.7607H88.1361C88.3135 32.7607 88.4575 32.6977 88.4575 32.6196C88.4575 32.5417 88.3135 32.4785 88.1361 32.4785H85.5216C85.344 32.4785 85.2002 32.4153 85.2002 32.3374C85.2002 32.2595 85.344 32.1963 85.5216 32.1963H86.1396H91.9699Z" fill="#FF3A2F"/>
<path d="M84.9873 33.1956C85.3185 33.1956 85.587 33.1432 85.587 33.0786C85.587 33.0142 85.3185 32.9619 84.9873 32.9619H83.1494C82.8183 32.9619 82.5498 33.0142 82.5498 33.0786C82.5498 33.1432 82.8183 33.1956 83.1494 33.1956H84.9873Z" fill="#FF3A2F"/>
<path d="M78.7696 30.6116V30.9777C78.7696 31.0484 78.6752 31.1056 78.5584 31.1056C78.4419 31.1056 78.3475 31.0484 78.3475 30.9777V30.9607C78.3475 30.8902 78.2528 30.8328 78.1362 30.8328C78.0195 30.8328 77.925 30.8902 77.925 30.9607V31.7478C77.925 31.8185 77.8306 31.8758 77.714 31.8758C77.5973 31.8758 77.5029 31.8185 77.5029 31.7478V30.8017V28.8682C77.5029 28.7977 77.5973 28.7403 77.714 28.7403C77.8306 28.7403 77.925 28.7977 77.925 28.8682V29.0867C77.925 29.1572 78.0195 29.2145 78.1362 29.2145C78.2528 29.2145 78.3475 29.1572 78.3475 29.0867V28.0469C78.3475 27.9763 78.4419 27.9189 78.5584 27.9189C78.6752 27.9189 78.7696 27.9763 78.7696 28.0469V28.2926V30.6116Z" fill="#FF3A2F"/>
</g>
<path d="M7.1343 28V26.86H8.0943C8.2543 26.86 8.40096 26.8267 8.5343 26.76C8.66763 26.6933 8.7743 26.58 8.8543 26.42C8.94763 26.2467 8.9943 26.02 8.9943 25.74V16.02C8.9943 15.7133 8.94763 15.48 8.8543 15.32C8.76096 15.1467 8.64096 15.0267 8.4943 14.96C8.36096 14.8933 8.20096 14.86 8.0143 14.86H7.1343V13.72H14.4743V14.86H13.5543C13.341 14.86 13.1676 14.8933 13.0343 14.96C12.901 15.0267 12.801 15.14 12.7343 15.3C12.6676 15.46 12.6343 15.68 12.6343 15.96V26.7H16.2543C16.5343 26.7 16.7743 26.64 16.9743 26.52C17.1743 26.4 17.3476 26.2133 17.4943 25.96C17.641 25.7067 17.7676 25.38 17.8743 24.98L18.2543 23.48H19.3943L19.2543 28H7.1343Z" fill="#AD2020"/>
<path d="M22.4341 19.54L21.4141 13.72H24.9341L23.9141 19.54H22.4341ZM30.3613 28.2C29.788 28.2 29.2613 28.08 28.7813 27.84C28.3013 27.6 27.9213 27.24 27.6413 26.76C27.3613 26.2667 27.2213 25.6533 27.2213 24.92C27.2213 23.8267 27.588 23.02 28.3213 22.5C29.068 21.98 30.1813 21.6933 31.6613 21.64L33.3013 21.58V20.5C33.3013 20.0333 33.268 19.64 33.2013 19.32C33.1347 18.9867 33.0213 18.7333 32.8613 18.56C32.7013 18.3867 32.4747 18.3 32.1813 18.3C31.9013 18.3 31.6747 18.3867 31.5013 18.56C31.328 18.7333 31.1947 18.98 31.1013 19.3C31.0213 19.62 30.9813 20.0067 30.9813 20.46C30.008 20.46 29.2747 20.36 28.7813 20.16C28.3013 19.9467 28.0613 19.5867 28.0613 19.08C28.0613 18.5733 28.2547 18.1733 28.6413 17.88C29.0413 17.5733 29.568 17.3533 30.2213 17.22C30.8747 17.0733 31.5947 17 32.3813 17C33.8613 17 34.968 17.2533 35.7013 17.76C36.4347 18.2533 36.8013 19.12 36.8013 20.36V25.44C36.8013 25.8 36.8347 26.0867 36.9013 26.3C36.9813 26.5 37.108 26.6467 37.2813 26.74C37.468 26.82 37.708 26.86 38.0013 26.86H38.0813V28H33.9413L33.4813 26.76H33.3013C33.008 27.12 32.728 27.4067 32.4613 27.62C32.208 27.82 31.9147 27.9667 31.5813 28.06C31.2613 28.1533 30.8547 28.2 30.3613 28.2ZM31.7213 26.66C32.0547 26.66 32.3347 26.56 32.5613 26.36C32.8013 26.1467 32.9813 25.8533 33.1013 25.48C33.2347 25.1067 33.3013 24.6733 33.3013 24.18V22.72L32.5613 22.78C32.108 22.8067 31.7547 22.9067 31.5013 23.08C31.248 23.2533 31.0613 23.5 30.9413 23.82C30.8347 24.1267 30.7813 24.5133 30.7813 24.98C30.7813 25.34 30.8147 25.6467 30.8813 25.9C30.948 26.1533 31.048 26.3467 31.1813 26.48C31.328 26.6 31.508 26.66 31.7213 26.66ZM38.9465 28V26.86H39.0265C39.3332 26.86 39.5932 26.8267 39.8065 26.76C40.0198 26.6933 40.1865 26.56 40.3065 26.36C40.4265 26.1467 40.4865 25.8333 40.4865 25.42V19.78C40.4865 19.38 40.4332 19.0867 40.3265 18.9C40.2332 18.7 40.0865 18.5733 39.8865 18.52C39.6865 18.4533 39.4398 18.42 39.1465 18.42H39.0865V17.28H43.4665L43.8665 19H43.9665C44.1665 18.5333 44.3998 18.1533 44.6665 17.86C44.9332 17.5667 45.2532 17.3533 45.6265 17.22C45.9998 17.0867 46.4532 17.02 46.9865 17.02C47.7598 17.02 48.3265 17.1933 48.6865 17.54C49.0465 17.8733 49.2265 18.3067 49.2265 18.84C49.2265 19.5333 48.9732 20.0467 48.4665 20.38C47.9732 20.7 47.2998 20.86 46.4465 20.86C46.4465 20.4867 46.4198 20.18 46.3665 19.94C46.3132 19.6867 46.2198 19.4933 46.0865 19.36C45.9665 19.2267 45.7798 19.16 45.5265 19.16C45.2332 19.16 44.9865 19.26 44.7865 19.46C44.5998 19.66 44.4465 19.9267 44.3265 20.26C44.2198 20.58 44.1398 20.9267 44.0865 21.3C44.0332 21.66 44.0065 21.9933 44.0065 22.3V25.52C44.0065 25.9067 44.0598 26.2 44.1665 26.4C44.2732 26.5867 44.4265 26.7133 44.6265 26.78C44.8265 26.8333 45.0532 26.86 45.3065 26.86H45.9865V28H38.9465ZM54.6254 28.2C53.6521 28.2 52.8787 27.9667 52.3054 27.5C51.7321 27.02 51.4454 26.1933 51.4454 25.02V18.72H49.9654V17.62C50.4721 17.62 50.8987 17.52 51.2454 17.32C51.6054 17.12 51.8854 16.9133 52.0854 16.7C52.2721 16.5 52.4454 16.24 52.6054 15.92C52.7787 15.6 52.9121 15.22 53.0054 14.78H54.9654V17.28H57.4854V18.72H54.9654V24.7C54.9654 25.2733 55.0521 25.6933 55.2254 25.96C55.3987 26.2133 55.7254 26.34 56.2054 26.34C56.4721 26.34 56.7254 26.3267 56.9654 26.3C57.2187 26.26 57.4521 26.2133 57.6654 26.16V27.62C57.4387 27.7267 57.0654 27.8533 56.5454 28C56.0254 28.1333 55.3854 28.2 54.6254 28.2ZM64.321 28.2C62.5077 28.2 61.1543 27.72 60.261 26.76C59.3677 25.7867 58.921 24.4267 58.921 22.68C58.921 20.8 59.3677 19.3867 60.261 18.44C61.1677 17.48 62.441 17 64.081 17C65.601 17 66.7943 17.4067 67.661 18.22C68.541 19.0333 68.981 20.2333 68.981 21.82V22.9H62.461C62.4877 23.7533 62.601 24.4533 62.801 25C63.0143 25.5467 63.3143 25.9533 63.701 26.22C64.0877 26.4733 64.561 26.6 65.121 26.6C65.5877 26.6 65.9877 26.5267 66.321 26.38C66.6677 26.22 66.961 26.0133 67.201 25.76C67.4543 25.4933 67.6543 25.1933 67.801 24.86C68.0277 24.94 68.201 25.0667 68.321 25.24C68.4543 25.4 68.521 25.6067 68.521 25.86C68.521 26.2467 68.3743 26.62 68.081 26.98C67.801 27.34 67.3543 27.6333 66.741 27.86C66.1277 28.0867 65.321 28.2 64.321 28.2ZM65.501 21.54C65.501 20.86 65.4543 20.2867 65.361 19.82C65.2677 19.3533 65.121 19 64.921 18.76C64.7343 18.5067 64.481 18.38 64.161 18.38C63.841 18.38 63.5543 18.5 63.301 18.74C63.0477 18.98 62.8543 19.3333 62.721 19.8C62.5877 20.2667 62.5143 20.8467 62.501 21.54H65.501Z" fill="#252525"/>
<path d="M6.53717 48V47.202H7.20917C7.33051 47.202 7.43784 47.174 7.53117 47.118C7.62451 47.0527 7.69917 46.964 7.75517 46.852C7.81117 46.7307 7.83917 46.572 7.83917 46.376V39.614C7.83917 39.3993 7.80651 39.236 7.74117 39.124C7.68517 39.012 7.60584 38.9327 7.50317 38.886C7.40051 38.83 7.28384 38.802 7.15317 38.802H6.53717V38.004H11.2972C12.3612 38.004 13.2712 38.1813 14.0272 38.536C14.7925 38.8813 15.3805 39.404 15.7912 40.104C16.2018 40.804 16.4072 41.686 16.4072 42.75C16.4072 43.7673 16.2112 44.6727 15.8192 45.466C15.4365 46.2593 14.8672 46.88 14.1112 47.328C13.3552 47.776 12.4172 48 11.2972 48H6.53717ZM10.9612 47.076C11.5678 47.076 12.0718 46.8987 12.4732 46.544C12.8838 46.1893 13.1918 45.69 13.3972 45.046C13.6025 44.3927 13.7052 43.6273 13.7052 42.75C13.7052 41.8727 13.6025 41.154 13.3972 40.594C13.1918 40.0247 12.8838 39.6047 12.4732 39.334C12.0718 39.054 11.5725 38.914 10.9752 38.914H10.3592V47.076H10.9612ZM21.562 48.14C20.2927 48.14 19.3453 47.804 18.72 47.132C18.0947 46.4507 17.782 45.4987 17.782 44.276C17.782 42.96 18.0947 41.9707 18.72 41.308C19.3547 40.636 20.246 40.3 21.394 40.3C22.458 40.3 23.2933 40.5847 23.9 41.154C24.516 41.7233 24.824 42.5633 24.824 43.674V44.43H20.26C20.2787 45.0273 20.358 45.5173 20.498 45.9C20.6473 46.2827 20.8573 46.5673 21.128 46.754C21.3987 46.9313 21.73 47.02 22.122 47.02C22.4487 47.02 22.7287 46.9687 22.962 46.866C23.2047 46.754 23.41 46.6093 23.578 46.432C23.7553 46.2453 23.8953 46.0353 23.998 45.802C24.1567 45.858 24.278 45.9467 24.362 46.068C24.4553 46.18 24.502 46.3247 24.502 46.502C24.502 46.7727 24.3993 47.034 24.194 47.286C23.998 47.538 23.6853 47.7433 23.256 47.902C22.8267 48.0607 22.262 48.14 21.562 48.14ZM22.388 43.478C22.388 43.002 22.3553 42.6007 22.29 42.274C22.2247 41.9473 22.122 41.7 21.982 41.532C21.8513 41.3547 21.674 41.266 21.45 41.266C21.226 41.266 21.0253 41.35 20.848 41.518C20.6707 41.686 20.5353 41.9333 20.442 42.26C20.3487 42.5867 20.2973 42.9927 20.288 43.478H22.388ZM25.6351 48V47.202H25.7891C25.9478 47.202 26.0971 47.174 26.2371 47.118C26.3865 47.062 26.5031 46.9687 26.5871 46.838C26.6805 46.698 26.7271 46.502 26.7271 46.25V38.984C26.7271 38.7413 26.6665 38.564 26.5451 38.452C26.4331 38.3307 26.3025 38.2513 26.1531 38.214C26.0131 38.1767 25.8918 38.158 25.7891 38.158H25.6351V37.36H29.1771V46.25C29.1771 46.502 29.2191 46.698 29.3031 46.838C29.3965 46.9687 29.5178 47.062 29.6671 47.118C29.8165 47.174 29.9658 47.202 30.1151 47.202H30.2691V48H25.6351ZM30.8031 48V47.202H30.9571C31.1158 47.202 31.2651 47.174 31.4051 47.118C31.5544 47.062 31.6711 46.9687 31.7551 46.838C31.8484 46.698 31.8951 46.502 31.8951 46.25V38.984C31.8951 38.7413 31.8344 38.564 31.7131 38.452C31.6011 38.3307 31.4704 38.2513 31.3211 38.214C31.1811 38.1767 31.0598 38.158 30.9571 38.158H30.8031V37.36H34.3451V46.25C34.3451 46.502 34.3871 46.698 34.4711 46.838C34.5644 46.9687 34.6858 47.062 34.8351 47.118C34.9844 47.174 35.1338 47.202 35.2831 47.202H35.4371V48H30.8031ZM38.5051 48.14C38.1037 48.14 37.7351 48.056 37.3991 47.888C37.0631 47.72 36.7971 47.468 36.6011 47.132C36.4051 46.7867 36.3071 46.3573 36.3071 45.844C36.3071 45.0787 36.5637 44.514 37.0771 44.15C37.5997 43.786 38.3791 43.5853 39.4151 43.548L40.5631 43.506V42.75C40.5631 42.4233 40.5397 42.148 40.4931 41.924C40.4464 41.6907 40.3671 41.5133 40.2551 41.392C40.1431 41.2707 39.9844 41.21 39.7791 41.21C39.5831 41.21 39.4244 41.2707 39.3031 41.392C39.1817 41.5133 39.0884 41.686 39.0231 41.91C38.9671 42.134 38.9391 42.4047 38.9391 42.722C38.2577 42.722 37.7444 42.652 37.3991 42.512C37.0631 42.3627 36.8951 42.1107 36.8951 41.756C36.8951 41.4013 37.0304 41.1213 37.3011 40.916C37.5811 40.7013 37.9497 40.5473 38.4071 40.454C38.8644 40.3513 39.3684 40.3 39.9191 40.3C40.9551 40.3 41.7297 40.4773 42.2431 40.832C42.7564 41.1773 43.0131 41.784 43.0131 42.652V46.208C43.0131 46.46 43.0364 46.6607 43.0831 46.81C43.1391 46.95 43.2277 47.0527 43.3491 47.118C43.4797 47.174 43.6477 47.202 43.8531 47.202H43.9091V48H41.0111L40.6891 47.132H40.5631C40.3577 47.384 40.1617 47.5847 39.9751 47.734C39.7977 47.874 39.5924 47.9767 39.3591 48.042C39.1351 48.1073 38.8504 48.14 38.5051 48.14ZM39.4571 47.062C39.6904 47.062 39.8864 46.992 40.0451 46.852C40.2131 46.7027 40.3391 46.4973 40.4231 46.236C40.5164 45.9747 40.5631 45.6713 40.5631 45.326V44.304L40.0451 44.346C39.7277 44.3647 39.4804 44.4347 39.3031 44.556C39.1257 44.6773 38.9951 44.85 38.9111 45.074C38.8364 45.2887 38.7991 45.5593 38.7991 45.886C38.7991 46.138 38.8224 46.3527 38.8691 46.53C38.9157 46.7073 38.9857 46.8427 39.0791 46.936C39.1817 47.02 39.3077 47.062 39.4571 47.062ZM48.2774 48V47.202H48.8514C48.9821 47.202 49.1034 47.1833 49.2154 47.146C49.3274 47.0993 49.4161 47.0153 49.4814 46.894C49.5467 46.7633 49.5794 46.572 49.5794 46.32V39.628C49.5794 39.3853 49.5421 39.208 49.4674 39.096C49.4021 38.9747 49.3181 38.8953 49.2154 38.858C49.1127 38.8207 49.0054 38.802 48.8934 38.802H48.2774V38.004H52.7994C54.1807 38.004 55.1981 38.2607 55.8514 38.774C56.5141 39.2873 56.8454 40.0247 56.8454 40.986C56.8454 41.434 56.7661 41.854 56.6074 42.246C56.4581 42.6287 56.2107 42.9693 55.8654 43.268C55.5201 43.5667 55.0674 43.8 54.5074 43.968C53.9567 44.1267 53.2847 44.206 52.4914 44.206H52.1134V46.39C52.1134 46.6233 52.1414 46.8007 52.1974 46.922C52.2627 47.034 52.3467 47.1087 52.4494 47.146C52.5614 47.1833 52.6781 47.202 52.7994 47.202H53.6954V48H48.2774ZM52.3654 43.338C52.6827 43.338 52.9581 43.296 53.1914 43.212C53.4247 43.1187 53.6161 42.9833 53.7654 42.806C53.9147 42.6193 54.0221 42.3813 54.0874 42.092C54.1621 41.8027 54.1994 41.4527 54.1994 41.042C54.1994 40.5473 54.1434 40.146 54.0314 39.838C53.9194 39.5207 53.7421 39.2827 53.4994 39.124C53.2567 38.9653 52.9441 38.886 52.5614 38.886H52.0994V43.338H52.3654ZM57.2702 48V47.202H57.4382C57.5969 47.202 57.7462 47.174 57.8862 47.118C58.0356 47.062 58.1522 46.964 58.2362 46.824C58.3296 46.684 58.3762 46.4833 58.3762 46.222V42.19C58.3762 41.9473 58.3296 41.7653 58.2362 41.644C58.1429 41.5133 58.0216 41.4247 57.8722 41.378C57.7322 41.322 57.5876 41.294 57.4382 41.294H57.2142V40.496H60.8262V46.25C60.8262 46.502 60.8682 46.698 60.9522 46.838C61.0456 46.9687 61.1622 47.062 61.3022 47.118C61.4516 47.174 61.6056 47.202 61.7642 47.202H61.9182V48H57.2702ZM59.5242 39.292C59.1416 39.292 58.8196 39.2033 58.5582 39.026C58.3062 38.8487 58.1802 38.5827 58.1802 38.228C58.1802 37.8547 58.3109 37.584 58.5722 37.416C58.8336 37.248 59.1556 37.164 59.5382 37.164C59.9022 37.164 60.2196 37.248 60.4902 37.416C60.7609 37.584 60.8962 37.8547 60.8962 38.228C60.8962 38.5827 60.7609 38.8487 60.4902 39.026C60.2196 39.2033 59.8976 39.292 59.5242 39.292ZM62.2995 48V47.412L66.4575 41.504H64.7355C64.5675 41.504 64.4228 41.5273 64.3015 41.574C64.1895 41.6207 64.0915 41.7093 64.0075 41.84C63.9235 41.9707 63.8488 42.1667 63.7835 42.428L63.6715 42.876H62.7335L62.9155 40.496H69.2295V41.112L65.0715 46.992H67.2975C67.5215 46.992 67.7035 46.9593 67.8435 46.894C67.9928 46.8287 68.1095 46.7167 68.1935 46.558C68.2868 46.39 68.3568 46.1567 68.4035 45.858L68.5015 45.354H69.4255L69.3555 48H62.2995ZM69.8054 48V47.412L73.9634 41.504H72.2414C72.0734 41.504 71.9287 41.5273 71.8074 41.574C71.6954 41.6207 71.5974 41.7093 71.5134 41.84C71.4294 41.9707 71.3547 42.1667 71.2894 42.428L71.1774 42.876H70.2394L70.4214 40.496H76.7354V41.112L72.5774 46.992H74.8034C75.0274 46.992 75.2094 46.9593 75.3494 46.894C75.4987 46.8287 75.6154 46.7167 75.6994 46.558C75.7927 46.39 75.8627 46.1567 75.9094 45.858L76.0074 45.354H76.9314L76.8614 48H69.8054ZM79.9992 48.14C79.5979 48.14 79.2292 48.056 78.8932 47.888C78.5572 47.72 78.2912 47.468 78.0952 47.132C77.8992 46.7867 77.8012 46.3573 77.8012 45.844C77.8012 45.0787 78.0579 44.514 78.5712 44.15C79.0939 43.786 79.8732 43.5853 80.9092 43.548L82.0572 43.506V42.75C82.0572 42.4233 82.0339 42.148 81.9872 41.924C81.9406 41.6907 81.8612 41.5133 81.7492 41.392C81.6372 41.2707 81.4786 41.21 81.2732 41.21C81.0772 41.21 80.9186 41.2707 80.7972 41.392C80.6759 41.5133 80.5826 41.686 80.5172 41.91C80.4612 42.134 80.4332 42.4047 80.4332 42.722C79.7519 42.722 79.2386 42.652 78.8932 42.512C78.5572 42.3627 78.3892 42.1107 78.3892 41.756C78.3892 41.4013 78.5246 41.1213 78.7952 40.916C79.0752 40.7013 79.4439 40.5473 79.9012 40.454C80.3586 40.3513 80.8626 40.3 81.4132 40.3C82.4492 40.3 83.2239 40.4773 83.7372 40.832C84.2506 41.1773 84.5072 41.784 84.5072 42.652V46.208C84.5072 46.46 84.5306 46.6607 84.5772 46.81C84.6332 46.95 84.7219 47.0527 84.8432 47.118C84.9739 47.174 85.1419 47.202 85.3472 47.202H85.4032V48H82.5052L82.1832 47.132H82.0572C81.8519 47.384 81.6559 47.5847 81.4692 47.734C81.2919 47.874 81.0866 47.9767 80.8532 48.042C80.6292 48.1073 80.3446 48.14 79.9992 48.14ZM80.9512 47.062C81.1846 47.062 81.3806 46.992 81.5392 46.852C81.7072 46.7027 81.8332 46.4973 81.9172 46.236C82.0106 45.9747 82.0572 45.6713 82.0572 45.326V44.304L81.5392 44.346C81.2219 44.3647 80.9746 44.4347 80.7972 44.556C80.6199 44.6773 80.4892 44.85 80.4052 45.074C80.3306 45.2887 80.2932 45.5593 80.2932 45.886C80.2932 46.138 80.3166 46.3527 80.3632 46.53C80.4099 46.7073 80.4799 46.8427 80.5732 46.936C80.6759 47.02 80.8019 47.062 80.9512 47.062Z" fill="#3F3B3B"/>
<defs>
<clipPath id="clip0_103_622">
<rect width="28.963" height="23.1385" fill="white" transform="translate(67 13)"/>
</clipPath>
</defs>
</svg>
