<svg width="106" height="69" viewBox="0 0 106 69" fill="none" xmlns="http://www.w3.org/2000/svg">
<rect y="13" width="106" height="56" rx="5" fill="white"/>
<g clip-path="url(#clip0_109_260)">
<path d="M84.7559 19C87.635 19.8734 90.5014 21.4941 92.9745 23.8124C95.4469 26.1296 97.1754 28.8154 98.1074 31.5133L74.9229 40.7325L84.7559 19Z" fill="#FBB713"/>
<path opacity="0.25" d="M92.9745 23.8124C92.1228 23.0139 91.222 22.3044 90.2925 21.6736C90.3402 21.7172 90.3897 21.7572 90.4371 21.8014C92.9097 24.1187 96.1604 28.3127 97.0926 31.0107L76.0874 38.1589L74.9229 40.7326L98.1074 31.5133C97.1755 28.8154 95.4471 26.1295 92.9745 23.8124Z" fill="#252525"/>
<path opacity="0.35" d="M94.4282 31.5917C94.2676 31.5917 94.1139 31.5001 94.0442 31.3456C93.2347 29.5606 91.9531 27.8169 90.3381 26.3033C88.7218 24.7888 86.8596 23.5864 84.9532 22.8262C84.7375 22.7403 84.6333 22.4976 84.72 22.2841C84.807 22.0702 85.0539 21.9676 85.267 22.053C87.2707 22.8519 89.2241 24.1123 90.9164 25.6979C92.6103 27.2858 93.9575 29.1207 94.8115 31.0043C94.9067 31.2141 94.8118 31.4606 94.6003 31.5549C94.544 31.5799 94.4858 31.5917 94.4282 31.5917Z" fill="#FF3A2F"/>
<path opacity="0.35" d="M87.2672 27.8807C87.2672 28.7837 86.5281 29.5158 85.6165 29.5158C84.7049 29.5158 83.9658 28.7837 83.9658 27.8807C83.9658 26.9775 84.7049 26.2455 85.6165 26.2455C86.5281 26.2455 87.2672 26.9775 87.2672 27.8807Z" fill="#252525"/>
<path opacity="0.35" d="M83.7878 34.2109C83.7878 35.1142 83.0486 35.8462 82.137 35.8462C81.2254 35.8462 80.4863 35.1142 80.4863 34.2109C80.4863 33.3079 81.2254 32.5757 82.137 32.5757C83.0486 32.5757 83.7878 33.3079 83.7878 34.2109Z" fill="#252525"/>
<path d="M86.7603 28.3834C86.7603 29.2864 86.0214 30.0186 85.1097 30.0186C84.1979 30.0186 83.459 29.2864 83.459 28.3834C83.459 27.4803 84.1979 26.7482 85.1097 26.7482C86.0214 26.7482 86.7603 27.4803 86.7603 28.3834Z" fill="#FF3A2F"/>
<path d="M83.2797 34.2109C83.2797 35.1142 82.5408 35.8462 81.6292 35.8462C80.7176 35.8462 79.9785 35.1142 79.9785 34.2109C79.9785 33.3079 80.7176 32.5757 81.6292 32.5757C82.5408 32.5757 83.2797 33.3079 83.2797 34.2109Z" fill="#FF3A2F"/>
<path d="M89.5821 33.448C88.7962 33.7264 88.3627 34.5345 88.5297 35.3217L91.5392 34.125C91.1377 33.4842 90.3279 33.1835 89.5821 33.448Z" fill="#FF3A2F"/>
<path d="M83.2042 42.1548H84.9349C85.2688 42.1548 85.5392 42.275 85.5392 42.4234C85.5392 42.5719 85.2688 42.6921 84.9349 42.6921H84.8544C84.5207 42.6921 84.2501 42.8127 84.2501 42.9611C84.2501 43.1095 84.5207 43.2298 84.8544 43.2298H88.5751C88.9088 43.2298 89.1793 43.3502 89.1793 43.4986C89.1793 43.6471 88.9088 43.7674 88.5751 43.7674H84.1038H79.1893C78.8555 43.7674 78.585 43.6471 78.585 43.4986C78.585 43.3502 78.8555 43.2298 79.1893 43.2298H80.2218C80.5555 43.2298 80.8261 43.1095 80.8261 42.9611C80.8261 42.8127 80.5555 42.6921 80.2218 42.6921H75.3074C74.9737 42.6921 74.7031 42.5719 74.7031 42.4234C74.7031 42.275 74.9737 42.1548 75.3074 42.1548H76.4689H83.2042Z" fill="#FF3A2F"/>
<path d="M93.9164 44C94.2975 44 94.6064 43.8626 94.6064 43.6931C94.6064 43.5237 94.2975 43.3862 93.9164 43.3862H91.8022C91.4211 43.3862 91.1123 43.5237 91.1123 43.6931C91.1123 43.8626 91.4211 44 91.8022 44H93.9164Z" fill="#FF3A2F"/>
<path d="M95.5534 39.7405H96.3484C96.5014 39.7405 96.6256 39.8088 96.6256 39.8929C96.6256 39.9771 96.5014 40.0454 96.3484 40.0454H96.3113C96.158 40.0454 96.0337 40.1137 96.0337 40.1978C96.0337 40.2822 96.158 40.3503 96.3113 40.3503H98.0196C98.173 40.3503 98.2972 40.4186 98.2972 40.5029C98.2972 40.5871 98.173 40.6552 98.0196 40.6552H95.9666H91.7698C91.6167 40.6552 91.4924 40.5871 91.4924 40.5029C91.4924 40.4186 91.6167 40.3503 91.7698 40.3503H92.2442C92.3973 40.3503 92.5216 40.2822 92.5216 40.1978C92.5216 40.1137 92.3973 40.0454 92.2442 40.0454H89.9874C89.8341 40.0454 89.71 39.9771 89.71 39.8929C89.71 39.8088 89.8341 39.7405 89.9874 39.7405H90.5208H95.5534Z" fill="#FF3A2F"/>
<path d="M89.5259 40.8203C89.8117 40.8203 90.0435 40.7638 90.0435 40.694C90.0435 40.6244 89.8117 40.5679 89.5259 40.5679H87.9395C87.6536 40.5679 87.4219 40.6244 87.4219 40.694C87.4219 40.7638 87.6536 40.8203 87.9395 40.8203H89.5259Z" fill="#FF3A2F"/>
<path d="M84.1587 38.0287V38.4242C84.1587 38.5006 84.0773 38.5624 83.9765 38.5624C83.8759 38.5624 83.7944 38.5006 83.7944 38.4242V38.4058C83.7944 38.3296 83.7127 38.2677 83.612 38.2677C83.5114 38.2677 83.4298 38.3296 83.4298 38.4058V39.2563C83.4298 39.3327 83.3483 39.3945 83.2476 39.3945C83.1469 39.3945 83.0654 39.3327 83.0654 39.2563V38.2341V36.145C83.0654 36.0688 83.1469 36.0068 83.2476 36.0068C83.3483 36.0068 83.4298 36.0688 83.4298 36.145V36.3811C83.4298 36.4573 83.5114 36.5191 83.612 36.5191C83.7127 36.5191 83.7944 36.4573 83.7944 36.3811V35.2576C83.7944 35.1813 83.8759 35.1194 83.9765 35.1194C84.0773 35.1194 84.1587 35.1813 84.1587 35.2576V35.5231V38.0287Z" fill="#FF3A2F"/>
</g>
<path d="M12.1343 38V36.86H13.0943C13.2543 36.86 13.401 36.8267 13.5343 36.76C13.6676 36.6933 13.7743 36.58 13.8543 36.42C13.9476 36.2467 13.9943 36.02 13.9943 35.74V26.02C13.9943 25.7133 13.9476 25.48 13.8543 25.32C13.761 25.1467 13.641 25.0267 13.4943 24.96C13.361 24.8933 13.201 24.86 13.0143 24.86H12.1343V23.72H19.4743V24.86H18.5543C18.341 24.86 18.1676 24.8933 18.0343 24.96C17.901 25.0267 17.801 25.14 17.7343 25.3C17.6676 25.46 17.6343 25.68 17.6343 25.96V36.7H21.2543C21.5343 36.7 21.7743 36.64 21.9743 36.52C22.1743 36.4 22.3476 36.2133 22.4943 35.96C22.641 35.7067 22.7676 35.38 22.8743 34.98L23.2543 33.48H24.3943L24.2543 38H12.1343Z" fill="#AD2020"/>
<path d="M27.4341 29.54L26.4141 23.72H29.9341L28.9141 29.54H27.4341ZM35.3613 38.2C34.788 38.2 34.2613 38.08 33.7813 37.84C33.3013 37.6 32.9213 37.24 32.6413 36.76C32.3613 36.2667 32.2213 35.6533 32.2213 34.92C32.2213 33.8267 32.588 33.02 33.3213 32.5C34.068 31.98 35.1813 31.6933 36.6613 31.64L38.3013 31.58V30.5C38.3013 30.0333 38.268 29.64 38.2013 29.32C38.1347 28.9867 38.0213 28.7333 37.8613 28.56C37.7013 28.3867 37.4747 28.3 37.1813 28.3C36.9013 28.3 36.6747 28.3867 36.5013 28.56C36.328 28.7333 36.1947 28.98 36.1013 29.3C36.0213 29.62 35.9813 30.0067 35.9813 30.46C35.008 30.46 34.2747 30.36 33.7813 30.16C33.3013 29.9467 33.0613 29.5867 33.0613 29.08C33.0613 28.5733 33.2547 28.1733 33.6413 27.88C34.0413 27.5733 34.568 27.3533 35.2213 27.22C35.8747 27.0733 36.5947 27 37.3813 27C38.8613 27 39.968 27.2533 40.7013 27.76C41.4347 28.2533 41.8013 29.12 41.8013 30.36V35.44C41.8013 35.8 41.8347 36.0867 41.9013 36.3C41.9813 36.5 42.108 36.6467 42.2813 36.74C42.468 36.82 42.708 36.86 43.0013 36.86H43.0813V38H38.9413L38.4813 36.76H38.3013C38.008 37.12 37.728 37.4067 37.4613 37.62C37.208 37.82 36.9147 37.9667 36.5813 38.06C36.2613 38.1533 35.8547 38.2 35.3613 38.2ZM36.7213 36.66C37.0547 36.66 37.3347 36.56 37.5613 36.36C37.8013 36.1467 37.9813 35.8533 38.1013 35.48C38.2347 35.1067 38.3013 34.6733 38.3013 34.18V32.72L37.5613 32.78C37.108 32.8067 36.7547 32.9067 36.5013 33.08C36.248 33.2533 36.0613 33.5 35.9413 33.82C35.8347 34.1267 35.7813 34.5133 35.7813 34.98C35.7813 35.34 35.8147 35.6467 35.8813 35.9C35.948 36.1533 36.048 36.3467 36.1813 36.48C36.328 36.6 36.508 36.66 36.7213 36.66ZM43.9465 38V36.86H44.0265C44.3332 36.86 44.5932 36.8267 44.8065 36.76C45.0198 36.6933 45.1865 36.56 45.3065 36.36C45.4265 36.1467 45.4865 35.8333 45.4865 35.42V29.78C45.4865 29.38 45.4332 29.0867 45.3265 28.9C45.2332 28.7 45.0865 28.5733 44.8865 28.52C44.6865 28.4533 44.4398 28.42 44.1465 28.42H44.0865V27.28H48.4665L48.8665 29H48.9665C49.1665 28.5333 49.3998 28.1533 49.6665 27.86C49.9332 27.5667 50.2532 27.3533 50.6265 27.22C50.9998 27.0867 51.4532 27.02 51.9865 27.02C52.7598 27.02 53.3265 27.1933 53.6865 27.54C54.0465 27.8733 54.2265 28.3067 54.2265 28.84C54.2265 29.5333 53.9732 30.0467 53.4665 30.38C52.9732 30.7 52.2998 30.86 51.4465 30.86C51.4465 30.4867 51.4198 30.18 51.3665 29.94C51.3132 29.6867 51.2198 29.4933 51.0865 29.36C50.9665 29.2267 50.7798 29.16 50.5265 29.16C50.2332 29.16 49.9865 29.26 49.7865 29.46C49.5998 29.66 49.4465 29.9267 49.3265 30.26C49.2198 30.58 49.1398 30.9267 49.0865 31.3C49.0332 31.66 49.0065 31.9933 49.0065 32.3V35.52C49.0065 35.9067 49.0598 36.2 49.1665 36.4C49.2732 36.5867 49.4265 36.7133 49.6265 36.78C49.8265 36.8333 50.0532 36.86 50.3065 36.86H50.9865V38H43.9465ZM59.6254 38.2C58.6521 38.2 57.8787 37.9667 57.3054 37.5C56.7321 37.02 56.4454 36.1933 56.4454 35.02V28.72H54.9654V27.62C55.4721 27.62 55.8987 27.52 56.2454 27.32C56.6054 27.12 56.8854 26.9133 57.0854 26.7C57.2721 26.5 57.4454 26.24 57.6054 25.92C57.7787 25.6 57.9121 25.22 58.0054 24.78H59.9654V27.28H62.4854V28.72H59.9654V34.7C59.9654 35.2733 60.0521 35.6933 60.2254 35.96C60.3987 36.2133 60.7254 36.34 61.2054 36.34C61.4721 36.34 61.7254 36.3267 61.9654 36.3C62.2187 36.26 62.4521 36.2133 62.6654 36.16V37.62C62.4387 37.7267 62.0654 37.8533 61.5454 38C61.0254 38.1333 60.3854 38.2 59.6254 38.2ZM69.321 38.2C67.5077 38.2 66.1543 37.72 65.261 36.76C64.3677 35.7867 63.921 34.4267 63.921 32.68C63.921 30.8 64.3677 29.3867 65.261 28.44C66.1677 27.48 67.441 27 69.081 27C70.601 27 71.7943 27.4067 72.661 28.22C73.541 29.0333 73.981 30.2333 73.981 31.82V32.9H67.461C67.4877 33.7533 67.601 34.4533 67.801 35C68.0143 35.5467 68.3143 35.9533 68.701 36.22C69.0877 36.4733 69.561 36.6 70.121 36.6C70.5877 36.6 70.9877 36.5267 71.321 36.38C71.6677 36.22 71.961 36.0133 72.201 35.76C72.4543 35.4933 72.6543 35.1933 72.801 34.86C73.0277 34.94 73.201 35.0667 73.321 35.24C73.4543 35.4 73.521 35.6067 73.521 35.86C73.521 36.2467 73.3743 36.62 73.081 36.98C72.801 37.34 72.3543 37.6333 71.741 37.86C71.1277 38.0867 70.321 38.2 69.321 38.2ZM70.501 31.54C70.501 30.86 70.4543 30.2867 70.361 29.82C70.2677 29.3533 70.121 29 69.921 28.76C69.7343 28.5067 69.481 28.38 69.161 28.38C68.841 28.38 68.5543 28.5 68.301 28.74C68.0477 28.98 67.8543 29.3333 67.721 29.8C67.5877 30.2667 67.5143 30.8467 67.501 31.54H70.501Z" fill="#252525"/>
<path d="M11.5372 57V56.202H12.2092C12.3305 56.202 12.4378 56.174 12.5312 56.118C12.6245 56.0527 12.6992 55.964 12.7552 55.852C12.8112 55.7307 12.8392 55.572 12.8392 55.376V48.614C12.8392 48.3993 12.8065 48.236 12.7412 48.124C12.6852 48.012 12.6058 47.9327 12.5032 47.886C12.4005 47.83 12.2838 47.802 12.1532 47.802H11.5372V47.004H16.2972C17.3612 47.004 18.2712 47.1813 19.0272 47.536C19.7925 47.8813 20.3805 48.404 20.7912 49.104C21.2018 49.804 21.4072 50.686 21.4072 51.75C21.4072 52.7673 21.2112 53.6727 20.8192 54.466C20.4365 55.2593 19.8672 55.88 19.1112 56.328C18.3552 56.776 17.4172 57 16.2972 57H11.5372ZM15.9612 56.076C16.5678 56.076 17.0718 55.8987 17.4732 55.544C17.8838 55.1893 18.1918 54.69 18.3972 54.046C18.6025 53.3927 18.7052 52.6273 18.7052 51.75C18.7052 50.8727 18.6025 50.154 18.3972 49.594C18.1918 49.0247 17.8838 48.6047 17.4732 48.334C17.0718 48.054 16.5725 47.914 15.9752 47.914H15.3592V56.076H15.9612ZM26.562 57.14C25.2927 57.14 24.3453 56.804 23.72 56.132C23.0947 55.4507 22.782 54.4987 22.782 53.276C22.782 51.96 23.0947 50.9707 23.72 50.308C24.3547 49.636 25.246 49.3 26.394 49.3C27.458 49.3 28.2933 49.5847 28.9 50.154C29.516 50.7233 29.824 51.5633 29.824 52.674V53.43H25.26C25.2787 54.0273 25.358 54.5173 25.498 54.9C25.6473 55.2827 25.8573 55.5673 26.128 55.754C26.3987 55.9313 26.73 56.02 27.122 56.02C27.4487 56.02 27.7287 55.9687 27.962 55.866C28.2047 55.754 28.41 55.6093 28.578 55.432C28.7553 55.2453 28.8953 55.0353 28.998 54.802C29.1567 54.858 29.278 54.9467 29.362 55.068C29.4553 55.18 29.502 55.3247 29.502 55.502C29.502 55.7727 29.3993 56.034 29.194 56.286C28.998 56.538 28.6853 56.7433 28.256 56.902C27.8267 57.0607 27.262 57.14 26.562 57.14ZM27.388 52.478C27.388 52.002 27.3553 51.6007 27.29 51.274C27.2247 50.9473 27.122 50.7 26.982 50.532C26.8513 50.3547 26.674 50.266 26.45 50.266C26.226 50.266 26.0253 50.35 25.848 50.518C25.6707 50.686 25.5353 50.9333 25.442 51.26C25.3487 51.5867 25.2973 51.9927 25.288 52.478H27.388ZM30.6351 57V56.202H30.7891C30.9478 56.202 31.0971 56.174 31.2371 56.118C31.3865 56.062 31.5031 55.9687 31.5871 55.838C31.6805 55.698 31.7271 55.502 31.7271 55.25V47.984C31.7271 47.7413 31.6665 47.564 31.5451 47.452C31.4331 47.3307 31.3025 47.2513 31.1531 47.214C31.0131 47.1767 30.8918 47.158 30.7891 47.158H30.6351V46.36H34.1771V55.25C34.1771 55.502 34.2191 55.698 34.3031 55.838C34.3965 55.9687 34.5178 56.062 34.6671 56.118C34.8165 56.174 34.9658 56.202 35.1151 56.202H35.2691V57H30.6351ZM35.8031 57V56.202H35.9571C36.1158 56.202 36.2651 56.174 36.4051 56.118C36.5544 56.062 36.6711 55.9687 36.7551 55.838C36.8484 55.698 36.8951 55.502 36.8951 55.25V47.984C36.8951 47.7413 36.8344 47.564 36.7131 47.452C36.6011 47.3307 36.4704 47.2513 36.3211 47.214C36.1811 47.1767 36.0598 47.158 35.9571 47.158H35.8031V46.36H39.3451V55.25C39.3451 55.502 39.3871 55.698 39.4711 55.838C39.5644 55.9687 39.6858 56.062 39.8351 56.118C39.9844 56.174 40.1338 56.202 40.2831 56.202H40.4371V57H35.8031ZM43.5051 57.14C43.1037 57.14 42.7351 57.056 42.3991 56.888C42.0631 56.72 41.7971 56.468 41.6011 56.132C41.4051 55.7867 41.3071 55.3573 41.3071 54.844C41.3071 54.0787 41.5637 53.514 42.0771 53.15C42.5997 52.786 43.3791 52.5853 44.4151 52.548L45.5631 52.506V51.75C45.5631 51.4233 45.5397 51.148 45.4931 50.924C45.4464 50.6907 45.3671 50.5133 45.2551 50.392C45.1431 50.2707 44.9844 50.21 44.7791 50.21C44.5831 50.21 44.4244 50.2707 44.3031 50.392C44.1817 50.5133 44.0884 50.686 44.0231 50.91C43.9671 51.134 43.9391 51.4047 43.9391 51.722C43.2577 51.722 42.7444 51.652 42.3991 51.512C42.0631 51.3627 41.8951 51.1107 41.8951 50.756C41.8951 50.4013 42.0304 50.1213 42.3011 49.916C42.5811 49.7013 42.9497 49.5473 43.4071 49.454C43.8644 49.3513 44.3684 49.3 44.9191 49.3C45.9551 49.3 46.7297 49.4773 47.2431 49.832C47.7564 50.1773 48.0131 50.784 48.0131 51.652V55.208C48.0131 55.46 48.0364 55.6607 48.0831 55.81C48.1391 55.95 48.2277 56.0527 48.3491 56.118C48.4797 56.174 48.6477 56.202 48.8531 56.202H48.9091V57H46.0111L45.6891 56.132H45.5631C45.3577 56.384 45.1617 56.5847 44.9751 56.734C44.7977 56.874 44.5924 56.9767 44.3591 57.042C44.1351 57.1073 43.8504 57.14 43.5051 57.14ZM44.4571 56.062C44.6904 56.062 44.8864 55.992 45.0451 55.852C45.2131 55.7027 45.3391 55.4973 45.4231 55.236C45.5164 54.9747 45.5631 54.6713 45.5631 54.326V53.304L45.0451 53.346C44.7277 53.3647 44.4804 53.4347 44.3031 53.556C44.1257 53.6773 43.9951 53.85 43.9111 54.074C43.8364 54.2887 43.7991 54.5593 43.7991 54.886C43.7991 55.138 43.8224 55.3527 43.8691 55.53C43.9157 55.7073 43.9857 55.8427 44.0791 55.936C44.1817 56.02 44.3077 56.062 44.4571 56.062ZM53.2774 57V56.202H53.8514C53.9821 56.202 54.1034 56.1833 54.2154 56.146C54.3274 56.0993 54.4161 56.0153 54.4814 55.894C54.5467 55.7633 54.5794 55.572 54.5794 55.32V48.628C54.5794 48.3853 54.5421 48.208 54.4674 48.096C54.4021 47.9747 54.3181 47.8953 54.2154 47.858C54.1127 47.8207 54.0054 47.802 53.8934 47.802H53.2774V47.004H57.7994C59.1807 47.004 60.1981 47.2607 60.8514 47.774C61.5141 48.2873 61.8454 49.0247 61.8454 49.986C61.8454 50.434 61.7661 50.854 61.6074 51.246C61.4581 51.6287 61.2107 51.9693 60.8654 52.268C60.5201 52.5667 60.0674 52.8 59.5074 52.968C58.9567 53.1267 58.2847 53.206 57.4914 53.206H57.1134V55.39C57.1134 55.6233 57.1414 55.8007 57.1974 55.922C57.2627 56.034 57.3467 56.1087 57.4494 56.146C57.5614 56.1833 57.6781 56.202 57.7994 56.202H58.6954V57H53.2774ZM57.3654 52.338C57.6827 52.338 57.9581 52.296 58.1914 52.212C58.4247 52.1187 58.6161 51.9833 58.7654 51.806C58.9147 51.6193 59.0221 51.3813 59.0874 51.092C59.1621 50.8027 59.1994 50.4527 59.1994 50.042C59.1994 49.5473 59.1434 49.146 59.0314 48.838C58.9194 48.5207 58.7421 48.2827 58.4994 48.124C58.2567 47.9653 57.9441 47.886 57.5614 47.886H57.0994V52.338H57.3654ZM62.2702 57V56.202H62.4382C62.5969 56.202 62.7462 56.174 62.8862 56.118C63.0356 56.062 63.1522 55.964 63.2362 55.824C63.3296 55.684 63.3762 55.4833 63.3762 55.222V51.19C63.3762 50.9473 63.3296 50.7653 63.2362 50.644C63.1429 50.5133 63.0216 50.4247 62.8722 50.378C62.7322 50.322 62.5876 50.294 62.4382 50.294H62.2142V49.496H65.8262V55.25C65.8262 55.502 65.8682 55.698 65.9522 55.838C66.0456 55.9687 66.1622 56.062 66.3022 56.118C66.4516 56.174 66.6056 56.202 66.7642 56.202H66.9182V57H62.2702ZM64.5242 48.292C64.1416 48.292 63.8196 48.2033 63.5582 48.026C63.3062 47.8487 63.1802 47.5827 63.1802 47.228C63.1802 46.8547 63.3109 46.584 63.5722 46.416C63.8336 46.248 64.1556 46.164 64.5382 46.164C64.9022 46.164 65.2196 46.248 65.4902 46.416C65.7609 46.584 65.8962 46.8547 65.8962 47.228C65.8962 47.5827 65.7609 47.8487 65.4902 48.026C65.2196 48.2033 64.8976 48.292 64.5242 48.292ZM67.2995 57V56.412L71.4575 50.504H69.7355C69.5675 50.504 69.4228 50.5273 69.3015 50.574C69.1895 50.6207 69.0915 50.7093 69.0075 50.84C68.9235 50.9707 68.8488 51.1667 68.7835 51.428L68.6715 51.876H67.7335L67.9155 49.496H74.2295V50.112L70.0715 55.992H72.2975C72.5215 55.992 72.7035 55.9593 72.8435 55.894C72.9928 55.8287 73.1095 55.7167 73.1935 55.558C73.2868 55.39 73.3568 55.1567 73.4035 54.858L73.5015 54.354H74.4255L74.3555 57H67.2995ZM74.8054 57V56.412L78.9634 50.504H77.2414C77.0734 50.504 76.9287 50.5273 76.8074 50.574C76.6954 50.6207 76.5974 50.7093 76.5134 50.84C76.4294 50.9707 76.3547 51.1667 76.2894 51.428L76.1774 51.876H75.2394L75.4214 49.496H81.7354V50.112L77.5774 55.992H79.8034C80.0274 55.992 80.2094 55.9593 80.3494 55.894C80.4987 55.8287 80.6154 55.7167 80.6994 55.558C80.7927 55.39 80.8627 55.1567 80.9094 54.858L81.0074 54.354H81.9314L81.8614 57H74.8054ZM84.9992 57.14C84.5979 57.14 84.2292 57.056 83.8932 56.888C83.5572 56.72 83.2912 56.468 83.0952 56.132C82.8992 55.7867 82.8012 55.3573 82.8012 54.844C82.8012 54.0787 83.0579 53.514 83.5712 53.15C84.0939 52.786 84.8732 52.5853 85.9092 52.548L87.0572 52.506V51.75C87.0572 51.4233 87.0339 51.148 86.9872 50.924C86.9406 50.6907 86.8612 50.5133 86.7492 50.392C86.6372 50.2707 86.4786 50.21 86.2732 50.21C86.0772 50.21 85.9186 50.2707 85.7972 50.392C85.6759 50.5133 85.5826 50.686 85.5172 50.91C85.4612 51.134 85.4332 51.4047 85.4332 51.722C84.7519 51.722 84.2386 51.652 83.8932 51.512C83.5572 51.3627 83.3892 51.1107 83.3892 50.756C83.3892 50.4013 83.5246 50.1213 83.7952 49.916C84.0752 49.7013 84.4439 49.5473 84.9012 49.454C85.3586 49.3513 85.8626 49.3 86.4132 49.3C87.4492 49.3 88.2239 49.4773 88.7372 49.832C89.2506 50.1773 89.5072 50.784 89.5072 51.652V55.208C89.5072 55.46 89.5306 55.6607 89.5772 55.81C89.6332 55.95 89.7219 56.0527 89.8432 56.118C89.9739 56.174 90.1419 56.202 90.3472 56.202H90.4032V57H87.5052L87.1832 56.132H87.0572C86.8519 56.384 86.6559 56.5847 86.4692 56.734C86.2919 56.874 86.0866 56.9767 85.8532 57.042C85.6292 57.1073 85.3446 57.14 84.9992 57.14ZM85.9512 56.062C86.1846 56.062 86.3806 55.992 86.5392 55.852C86.7072 55.7027 86.8332 55.4973 86.9172 55.236C87.0106 54.9747 87.0572 54.6713 87.0572 54.326V53.304L86.5392 53.346C86.2219 53.3647 85.9746 53.4347 85.7972 53.556C85.6199 53.6773 85.4892 53.85 85.4052 54.074C85.3306 54.2887 85.2932 54.5593 85.2932 54.886C85.2932 55.138 85.3166 55.3527 85.3632 55.53C85.4099 55.7073 85.4799 55.8427 85.5732 55.936C85.6759 56.02 85.8019 56.062 85.9512 56.062Z" fill="#3F3B3B"/>
<defs>
<clipPath id="clip0_109_260">
<rect width="25" height="25" fill="white" transform="translate(74 19)"/>
</clipPath>
</defs>
</svg>
