<svg width="20" height="20" viewBox="0 0 20 20" fill="none" xmlns="http://www.w3.org/2000/svg">
<path d="M5.15625 17.2813V14.75C5.15625 14.5 5.3125 14.3125 5.53125 14.2188L8.625 13.1562V11.4375" stroke="#AD2020" stroke-miterlimit="10"/>
<path d="M14.8125 17.2813V14.75C14.8125 14.5 14.6562 14.3125 14.4375 14.2188L11.3438 13.1562V11.4375" stroke="#AD2020" stroke-miterlimit="10"/>
<path d="M7.65625 7.875L7.875 10.3125C7.90625 10.6875 8.125 11.0312 8.46875 11.1875L9.59375 11.9375H10.3438L11.5 11.1875C11.8438 11 12.0625 10.6875 12.0938 10.3125L12.3125 7.875" stroke="#AD2020" stroke-miterlimit="10"/>
<path d="M11.375 13.1875L9.65625 14.7187V17.2812" stroke="#AD2020" stroke-miterlimit="10"/>
<path d="M8.59375 13.1875L9.96875 14.375" stroke="#AD2020" stroke-miterlimit="10"/>
<path d="M4 17.2812H15.9375" stroke="#AD2020" stroke-miterlimit="10"/>
<path d="M10.25 15.4688H10.8125" stroke="#AD2020" stroke-miterlimit="10"/>
<path d="M10.25 16.6875H10.8125" stroke="#AD2020" stroke-miterlimit="10"/>
<path d="M13.0312 4.875C13.0312 4.25 12.5 3.71875 11.875 3.71875C11.75 3.71875 11.625 3.75 11.5312 3.78125C11.2187 3.3125 10.7187 3 10.125 3C9.53125 3 9.03125 3.3125 8.71875 3.78125C8.59375 3.75 8.5 3.71875 8.375 3.71875C7.75 3.71875 7.21875 4.25 7.21875 4.875C7.21875 5.6875 7.6875 6 7.6875 6V7.1875H12.3437V6C12.3125 6 13.0312 5.6875 13.0312 4.875Z" stroke="#AD2020" stroke-miterlimit="10"/>
<path d="M7.78125 5.9375H9.65625" stroke="#AD2020" stroke-miterlimit="10"/>
</svg>
