<svg width="50" height="50" viewBox="0 0 50 50" fill="none" xmlns="http://www.w3.org/2000/svg">
<g clip-path="url(#clip0_38_577)">
<path d="M42.12 28.2127C41.7518 23.9259 39.7886 19.9332 36.6187 17.0238C33.4487 14.1145 29.3026 12.5003 25 12.5003C20.6974 12.5003 16.5513 14.1145 13.3813 17.0238C10.2114 19.9332 8.24824 23.9259 7.88 28.2127L3.33711 33.0585C2.67613 33.8706 2.3242 34.8906 2.34375 35.9375V46.0938C2.34497 47.1294 2.75691 48.1222 3.48921 48.8545C4.22151 49.5868 5.21437 49.9988 6.25 50H43.75C44.7856 49.9988 45.7785 49.5868 46.5108 48.8545C47.2431 48.1222 47.655 47.1294 47.6562 46.0938V35.9375C47.6759 34.891 47.3244 33.8713 46.6641 33.0593L42.12 28.2127ZM25 14.0625C28.0903 14.0625 31.1113 14.9789 33.6808 16.6958C36.2503 18.4127 38.253 20.853 39.4356 23.7081C40.6182 26.5632 40.9277 29.7048 40.3248 32.7358C39.7219 35.7667 38.2337 38.5508 36.0485 40.736C33.8633 42.9212 31.0792 44.4094 28.0483 45.0123C25.0173 45.6152 21.8757 45.3057 19.0206 44.1231C16.1655 42.9405 13.7252 40.9378 12.0083 38.3683C10.2914 35.7988 9.375 32.7778 9.375 29.6875C9.37967 25.5449 11.0274 21.5734 13.9566 18.6441C16.8859 15.7149 20.8574 14.0672 25 14.0625ZM46.0938 46.0938C46.0931 46.7151 45.8459 47.3109 45.4065 47.7503C44.9671 48.1897 44.3714 48.4368 43.75 48.4375H6.25C5.62861 48.4368 5.03286 48.1897 4.59347 47.7503C4.15408 47.3109 3.90693 46.7151 3.90625 46.0938V35.9375C3.88261 35.2868 4.08403 34.6478 4.47656 34.1282L7.83469 30.5462C8.05664 34.9492 9.96202 39.0986 13.1569 42.1364C16.3517 45.1743 20.5918 46.8683 25.0004 46.8683C29.409 46.8683 33.649 45.1743 36.8439 42.1364C40.0388 39.0986 41.9441 34.9492 42.1661 30.5462L45.525 34.129C45.9168 34.6486 46.1176 35.2872 46.0938 35.9375V46.0938ZM25 0C13.292 0 0.78125 2.25781 0.78125 8.59375V11.7188C0.78125 11.926 0.86356 12.1247 1.01007 12.2712C1.15659 12.4177 1.3553 12.5 1.5625 12.5H12.5C12.7072 12.5 12.9059 12.4177 13.0524 12.2712C13.1989 12.1247 13.2812 11.926 13.2812 11.7188L13.2656 8.66969C13.6635 7.98266 17.9634 7.03125 25 7.03125C32.0366 7.03125 36.3365 7.98266 36.7188 8.59375V11.7188C36.7188 11.926 36.8011 12.1247 36.9476 12.2712C37.0941 12.4177 37.2928 12.5 37.5 12.5H48.4375C48.6447 12.5 48.8434 12.4177 48.9899 12.2712C49.1364 12.1247 49.2188 11.926 49.2188 11.7188V8.59375C49.2188 2.25781 36.708 0 25 0ZM47.6562 10.9375H38.2812V8.59375C38.2812 5.875 29.9598 5.46875 25 5.46875C20.0402 5.46875 11.7188 5.875 11.7188 8.59375V10.9375H2.34375V8.59375C2.34375 4.38805 11.4487 1.5625 25 1.5625C38.5513 1.5625 47.6562 4.38805 47.6562 8.59375V10.9375ZM19.5312 39.0625C19.5312 39.6841 19.7782 40.2802 20.2177 40.7198C20.6573 41.1593 21.2534 41.4062 21.875 41.4062C22.4966 41.4062 23.0927 41.1593 23.5323 40.7198C23.9718 40.2802 24.2188 39.6841 24.2188 39.0625V35.1562H36.7188C36.9259 35.1562 37.1247 35.0739 37.2712 34.9274C37.4177 34.7809 37.5 34.5822 37.5 34.375C37.5089 31.0906 36.8664 27.837 35.6094 24.8027C34.3525 21.7683 32.5062 19.0134 30.1773 16.6973C30.0308 16.5509 29.8321 16.4686 29.625 16.4686C29.4178 16.4686 29.2191 16.5509 29.0726 16.6973L11.9476 33.8223C11.8382 33.9316 11.7638 34.0708 11.7336 34.2224C11.7034 34.374 11.7188 34.5311 11.778 34.6739C11.8371 34.8167 11.9373 34.9388 12.0658 35.0246C12.1943 35.1105 12.3454 35.1563 12.5 35.1562H19.5312V39.0625ZM14.386 33.5938L29.6158 18.3636C33.5082 22.4994 35.7523 27.9169 35.9245 33.5938H24.2188V32.8125C24.2188 32.6053 24.1364 32.4066 23.9899 32.2601C23.8434 32.1136 23.6447 32.0312 23.4375 32.0312C23.2303 32.0312 23.0316 32.1136 22.8851 32.2601C22.7386 32.4066 22.6562 32.6053 22.6562 32.8125V39.0625C22.6562 39.2697 22.5739 39.4684 22.4274 39.6149C22.2809 39.7614 22.0822 39.8438 21.875 39.8438C21.6678 39.8438 21.4691 39.7614 21.3226 39.6149C21.1761 39.4684 21.0938 39.2697 21.0938 39.0625V32.8125C21.0938 32.6053 21.0114 32.4066 20.8649 32.2601C20.7184 32.1136 20.5197 32.0312 20.3125 32.0312C20.1053 32.0312 19.9066 32.1136 19.7601 32.2601C19.6136 32.4066 19.5312 32.6053 19.5312 32.8125V33.5938H14.386ZM31.25 32.0312C31.7136 32.0312 32.1667 31.8938 32.5521 31.6363C32.9375 31.3787 33.2379 31.0127 33.4153 30.5844C33.5927 30.1561 33.6391 29.6849 33.5487 29.2303C33.4583 28.7756 33.2351 28.358 32.9073 28.0302C32.5795 27.7024 32.1619 27.4792 31.7072 27.3888C31.2526 27.2983 30.7814 27.3448 30.3531 27.5222C29.9248 27.6996 29.5588 28 29.3012 28.3854C29.0437 28.7708 28.9062 29.2239 28.9062 29.6875C28.9069 30.3089 29.1541 30.9046 29.5935 31.344C30.0329 31.7834 30.6286 32.0306 31.25 32.0312ZM31.25 28.9062C31.4045 28.9062 31.5556 28.9521 31.684 29.0379C31.8125 29.1238 31.9126 29.2458 31.9718 29.3885C32.0309 29.5313 32.0464 29.6884 32.0162 29.8399C31.9861 29.9915 31.9117 30.1307 31.8024 30.2399C31.6932 30.3492 31.554 30.4236 31.4024 30.4537C31.2509 30.4839 31.0938 30.4684 30.951 30.4093C30.8083 30.3501 30.6863 30.25 30.6004 30.1215C30.5146 29.9931 30.4688 29.842 30.4688 29.6875C30.4689 29.4804 30.5513 29.2817 30.6978 29.1353C30.8442 28.9888 31.0429 28.9064 31.25 28.9062ZM26.5625 28.125C27.0261 28.125 27.4792 27.9875 27.8646 27.73C28.25 27.4725 28.5504 27.1064 28.7278 26.6782C28.9052 26.2499 28.9517 25.7787 28.8612 25.324C28.7708 24.8694 28.5476 24.4517 28.2198 24.124C27.892 23.7962 27.4744 23.573 27.0197 23.4825C26.5651 23.3921 26.0939 23.4385 25.6656 23.6159C25.2373 23.7933 24.8713 24.0937 24.6137 24.4791C24.3562 24.8646 24.2188 25.3177 24.2188 25.7812C24.2194 26.4026 24.4666 26.9984 24.906 27.4378C25.3454 27.8772 25.9411 28.1243 26.5625 28.125ZM26.5625 25C26.717 25 26.8681 25.0458 26.9965 25.1317C27.125 25.2175 27.2251 25.3395 27.2843 25.4823C27.3434 25.625 27.3589 25.7821 27.3287 25.9337C27.2986 26.0852 27.2242 26.2244 27.1149 26.3337C27.0057 26.4429 26.8665 26.5173 26.7149 26.5475C26.5634 26.5776 26.4063 26.5622 26.2635 26.503C26.1208 26.4439 25.9988 26.3438 25.9129 26.2153C25.8271 26.0868 25.7812 25.9358 25.7812 25.7812C25.7814 25.5741 25.8638 25.3755 26.0103 25.229C26.1567 25.0826 26.3554 25.0002 26.5625 25Z" fill="#AD2020"/>
</g>
<defs>
<clipPath id="clip0_38_577">
<rect width="50" height="50" fill="white"/>
</clipPath>
</defs>
</svg>
