<svg width="36" height="32" viewBox="0 0 36 32" fill="none" xmlns="http://www.w3.org/2000/svg">
<path d="M24.5203 28.1287C23.4204 28.1215 22.3253 27.9988 21.2578 27.7631C17.5713 26.9725 13.7752 24.9669 10.5703 22.1156C7.36547 19.2644 5.10633 15.8894 4.21688 12.6156C3.28032 9.17186 3.94829 6.22561 6.09563 4.31686L6.70875 3.77186C7.26504 3.27837 8.01885 3.00122 8.80477 3.00122C9.59069 3.00122 10.3445 3.27837 10.9008 3.77186L14.4241 6.90311C14.9797 7.39742 15.2917 8.06754 15.2917 8.76623C15.2917 9.46493 14.9797 10.135 14.4241 10.6294L12.3429 12.4787C13.3406 14.035 14.6977 15.5925 16.3015 17.0181C17.9053 18.4437 19.6589 19.6506 21.409 20.5375L23.4895 18.6875C23.7648 18.4428 24.0915 18.2486 24.4512 18.1162C24.8108 17.9837 25.1963 17.9156 25.5856 17.9156C25.9748 17.9156 26.3603 17.9837 26.7199 18.1162C27.0796 18.2486 27.4063 18.4428 27.6816 18.6875L31.2042 21.8187C31.7599 22.3129 32.072 22.9829 32.072 23.6815C32.072 24.3802 31.7599 25.0502 31.2042 25.5444L30.5904 26.0894C29.0766 27.4375 26.9813 28.1287 24.5203 28.1287ZM8.80477 4.87498C8.69251 4.87449 8.58126 4.89391 8.47755 4.93212C8.37384 4.97033 8.27974 5.02655 8.20079 5.09748L7.58696 5.64248C5.97891 7.07186 5.50922 9.39248 6.26438 12.1731C7.06383 15.1187 9.12188 18.1794 12.0588 20.7894C14.9958 23.3994 18.4383 25.2269 21.7528 25.94C24.8817 26.6112 27.491 26.1937 29.0991 24.7644L29.7122 24.2194C29.8724 24.0769 29.9624 23.8836 29.9624 23.6822C29.9624 23.4807 29.8724 23.2875 29.7122 23.145L26.1902 20.0137C26.0299 19.8713 25.8125 19.7914 25.5859 19.7914C25.3593 19.7914 25.1419 19.8713 24.9816 20.0137L22.3441 22.3581C22.1859 22.4989 21.9814 22.5912 21.7601 22.6218C21.5389 22.6523 21.3125 22.6195 21.1137 22.5281C18.9516 21.5344 16.7719 20.0875 14.8102 18.3437C12.8484 16.6 11.2242 14.6637 10.1034 12.7419C10.0005 12.5652 9.9635 12.364 9.99776 12.1673C10.032 11.9707 10.1358 11.7889 10.294 11.6481L12.9321 9.30374C13.0923 9.16122 13.1823 8.96801 13.1823 8.76655C13.1823 8.56509 13.0923 8.37187 12.9321 8.22936L9.40946 5.09748C9.33025 5.02667 9.23601 4.97053 9.13221 4.93234C9.02841 4.89415 8.91711 4.87465 8.80477 4.87498Z" fill="#AD2020"/>
<path d="M25.6465 16.8581C25.3668 16.8581 25.0985 16.7593 24.9007 16.5835C24.7029 16.4077 24.5918 16.1692 24.5918 15.9206C24.5898 14.2759 23.8539 12.6991 22.5456 11.5361C21.2374 10.3731 19.4635 9.71884 17.6133 9.71686C17.3336 9.71686 17.0653 9.61809 16.8675 9.44227C16.6697 9.26645 16.5586 9.028 16.5586 8.77936C16.5586 8.53072 16.6697 8.29226 16.8675 8.11645C17.0653 7.94063 17.3336 7.84186 17.6133 7.84186C22.6245 7.84186 26.7012 11.4669 26.7012 15.9206C26.7012 16.1692 26.5901 16.4077 26.3923 16.5835C26.1945 16.7593 25.9262 16.8581 25.6465 16.8581Z" fill="#AD2020"/>
<path d="M30.1043 16.8581C29.8246 16.8581 29.5563 16.7593 29.3585 16.5835C29.1607 16.4077 29.0496 16.1692 29.0496 15.9206C29.0496 10.315 23.9168 5.75433 17.6133 5.75433C17.3336 5.75433 17.0653 5.65556 16.8675 5.47975C16.6697 5.30393 16.5586 5.06547 16.5586 4.81683C16.5586 4.56819 16.6697 4.32974 16.8675 4.15392C17.0653 3.97811 17.3336 3.87933 17.6133 3.87933C25.0826 3.87933 31.159 9.28121 31.159 15.9206C31.159 16.1692 31.0479 16.4077 30.8501 16.5835C30.6523 16.7593 30.384 16.8581 30.1043 16.8581Z" fill="#AD2020"/>
</svg>
