<svg width="6" height="6" viewBox="0 0 6 6" fill="none" xmlns="http://www.w3.org/2000/svg">
<path d="M4.16718 3.5025C4.11695 3.47753 3.79042 3.32772 3.74018 3.30275C3.68995 3.27778 3.63971 3.27778 3.58948 3.32772C3.53924 3.37765 3.43877 3.52747 3.38853 3.5774C3.36342 3.62734 3.31318 3.62734 3.26295 3.60237C3.08712 3.52747 2.9113 3.42759 2.76059 3.30275C2.635 3.1779 2.50942 3.02809 2.40894 2.87828C2.38383 2.82834 2.40894 2.7784 2.43406 2.75343C2.45918 2.72846 2.4843 2.67853 2.53453 2.65356C2.55965 2.62859 2.58477 2.57865 2.58477 2.55368C2.60989 2.52871 2.60989 2.47878 2.58477 2.45381C2.55965 2.42884 2.43406 2.12921 2.38383 2.00437C2.35871 1.82959 2.30847 1.82959 2.25824 1.82959C2.23312 1.82959 2.18289 1.82959 2.13265 1.82959C2.08241 1.82959 2.00706 1.87953 1.98194 1.90449C1.83124 2.05431 1.75588 2.22909 1.75588 2.42884C1.781 2.65356 1.85636 2.87828 2.00706 3.07803C2.28336 3.47753 2.635 3.80212 3.062 4.00187C3.18759 4.05181 3.28806 4.10175 3.41365 4.12672C3.53924 4.17665 3.66483 4.17665 3.81554 4.15169C3.99136 4.12672 4.14207 4.00187 4.24254 3.85206C4.29277 3.75218 4.29277 3.65231 4.26765 3.55243C4.26765 3.55243 4.21742 3.52747 4.16718 3.5025ZM4.79513 1.23034C3.81554 0.256554 2.23312 0.256554 1.25353 1.23034C0.449765 2.02934 0.299058 3.25281 0.851648 4.22659L0.5 5.5L1.83124 5.15044C2.208 5.35019 2.60989 5.45006 3.01177 5.45006C4.39324 5.45006 5.49842 4.35144 5.49842 2.97815C5.52354 2.32896 5.24724 1.70474 4.79513 1.23034ZM4.11695 4.72597C3.79042 4.92572 3.41365 5.05056 3.01177 5.05056C2.635 5.05056 2.28336 4.95069 1.95683 4.77591L1.88147 4.72597L1.10282 4.92572L1.30377 4.17665L1.25353 4.10175C0.650706 3.103 0.952118 1.85456 1.93171 1.23034C2.9113 0.606117 4.16718 0.930712 4.77001 1.87953C5.37283 2.85331 5.09654 4.12672 4.11695 4.72597Z" fill="white"/>
</svg>
