<svg width="14" height="14" viewBox="0 0 14 14" fill="none" xmlns="http://www.w3.org/2000/svg">
<path d="M13.1483 3.74504C13.079 3.4682 12.9379 3.21454 12.7392 3.00969C12.5405 2.80485 12.2913 2.65607 12.0167 2.57837C11.0133 2.33337 7.00001 2.33337 7.00001 2.33337C7.00001 2.33337 2.98667 2.33337 1.98334 2.60171C1.70874 2.6794 1.45949 2.82818 1.26079 3.03303C1.06209 3.23787 0.920968 3.49153 0.851675 3.76837C0.66805 4.78661 0.578229 5.81955 0.583341 6.85421C0.576796 7.89665 0.666622 8.93747 0.851675 9.96337C0.928068 10.2316 1.07235 10.4756 1.27059 10.6718C1.46883 10.868 1.71432 11.0098 1.98334 11.0834C2.98667 11.3517 7.00001 11.3517 7.00001 11.3517C7.00001 11.3517 11.0133 11.3517 12.0167 11.0834C12.2913 11.0057 12.5405 10.8569 12.7392 10.6521C12.9379 10.4472 13.079 10.1936 13.1483 9.91671C13.3306 8.90613 13.4204 7.88107 13.4167 6.85421C13.4232 5.81176 13.3334 4.77095 13.1483 3.74504Z" stroke="#FFFAF1" stroke-linecap="round" stroke-linejoin="round"/>
<path d="M5.6875 8.76166L9.04167 6.85416L5.6875 4.94666V8.76166Z" stroke="#FFFAF1" stroke-linecap="round" stroke-linejoin="round"/>
</svg>
